<mxfile host="app.diagrams.net" agent="Mozilla/5.0 (Windows NT 10.0; Win64; x64) AppleWebKit/537.36 (KHTML, like Gecko) Chrome/135.0.0.0 Safari/537.36" version="26.2.12">
  <diagram id="vkK8o-hsKimOO6CbCIKc" name="第1頁">
    <mxGraphModel dx="1460" dy="639" grid="1" gridSize="10" guides="1" tooltips="1" connect="1" arrows="1" fold="1" page="1" pageScale="1" pageWidth="1169" pageHeight="827" math="0" shadow="0">
      <root>
        <mxCell id="0" />
        <mxCell id="1" parent="0" />
        <mxCell id="iIE0ldJsGx-aEYX-XOFw-3" value="" style="rounded=1;whiteSpace=wrap;html=1;movable=1;resizable=1;rotatable=1;deletable=1;editable=1;locked=0;connectable=1;strokeWidth=1;fontFamily=標楷體;fontSize=18;fontStyle=0;dashed=1;dashPattern=8 8;strokeColor=#808080;" parent="1" vertex="1">
          <mxGeometry x="240" y="180" width="920" height="320" as="geometry" />
        </mxCell>
        <mxCell id="iIE0ldJsGx-aEYX-XOFw-24" value="&lt;font style=&quot;font-size: 20px;&quot; face=&quot;標楷體&quot;&gt;&lt;b style=&quot;&quot;&gt;驅&lt;/b&gt;&lt;/font&gt;&lt;b style=&quot;font-size: 20px; font-family: 標楷體; background-color: transparent; color: light-dark(rgb(0, 0, 0), rgb(255, 255, 255));&quot;&gt;動&lt;/b&gt;" style="text;html=1;align=center;verticalAlign=middle;whiteSpace=wrap;rounded=0;fontFamily=Helvetica;fontSize=12;fontColor=default;" parent="1" vertex="1">
          <mxGeometry x="432.00250000000005" y="300.535" width="54.375" height="30" as="geometry" />
        </mxCell>
        <mxCell id="iIE0ldJsGx-aEYX-XOFw-93" value="&lt;font style=&quot;font-size: 20px;&quot; color=&quot;#333333&quot;&gt;&lt;b&gt;科技可供性制定&lt;/b&gt;&lt;/font&gt;" style="rounded=0;whiteSpace=wrap;html=1;strokeColor=#808080;fillColor=#cce5ff;fontFamily=標楷體;fontSize=18;fontStyle=0;align=center;verticalAlign=middle;fontColor=default;resizable=1;" parent="1" vertex="1">
          <mxGeometry x="540" y="135.81" width="290" height="60" as="geometry" />
        </mxCell>
        <mxCell id="jCKPyfohm9eTSwGeLUaR-52" value="&lt;font face=&quot;標楷體&quot;&gt;&lt;span style=&quot;font-size: 20px;&quot;&gt;&lt;b&gt;產生&lt;/b&gt;&lt;/span&gt;&lt;/font&gt;" style="text;html=1;align=center;verticalAlign=middle;whiteSpace=wrap;rounded=0;fontFamily=Helvetica;fontSize=12;fontColor=default;" parent="1" vertex="1">
          <mxGeometry x="900" y="300.535" width="54.375" height="30" as="geometry" />
        </mxCell>
        <mxCell id="jCKPyfohm9eTSwGeLUaR-63" style="edgeStyle=orthogonalEdgeStyle;rounded=0;orthogonalLoop=1;jettySize=auto;html=1;exitX=1;exitY=0.5;exitDx=0;exitDy=0;strokeWidth=2;strokeColor=#808080;entryX=-0.003;entryY=0.516;entryDx=0;entryDy=0;entryPerimeter=0;" parent="1" target="iIE0ldJsGx-aEYX-XOFw-15" edge="1">
          <mxGeometry relative="1" as="geometry">
            <mxPoint x="420" y="336.03499999999997" as="sourcePoint" />
            <mxPoint x="520" y="335" as="targetPoint" />
            <Array as="points">
              <mxPoint x="420" y="334" />
              <mxPoint x="500" y="334" />
            </Array>
          </mxGeometry>
        </mxCell>
        <mxCell id="jCKPyfohm9eTSwGeLUaR-65" value="&lt;font face=&quot;標楷體&quot;&gt;&lt;span style=&quot;font-size: 20px;&quot;&gt;&lt;b&gt;修正&lt;/b&gt;&lt;/span&gt;&lt;/font&gt;" style="text;html=1;align=center;verticalAlign=middle;whiteSpace=wrap;rounded=0;fontFamily=Helvetica;fontSize=12;fontColor=default;" parent="1" vertex="1">
          <mxGeometry x="900" y="439.995" width="54.375" height="30" as="geometry" />
        </mxCell>
        <mxCell id="iIE0ldJsGx-aEYX-XOFw-49" value="&lt;font face=&quot;標楷體&quot;&gt;&lt;span style=&quot;font-size: 20px;&quot;&gt;&lt;b&gt;實踐&lt;/b&gt;&lt;/span&gt;&lt;/font&gt;" style="text;html=1;align=center;verticalAlign=middle;whiteSpace=wrap;rounded=0;" parent="1" vertex="1">
          <mxGeometry x="900" y="499.995" width="54.375" height="30" as="geometry" />
        </mxCell>
        <mxCell id="jCKPyfohm9eTSwGeLUaR-89" style="edgeStyle=orthogonalEdgeStyle;rounded=0;orthogonalLoop=1;jettySize=auto;html=1;entryX=0.009;entryY=0.413;entryDx=0;entryDy=0;entryPerimeter=0;strokeColor=#808080;strokeWidth=2;align=center;verticalAlign=middle;fontFamily=Helvetica;fontSize=11;fontColor=default;labelBackgroundColor=default;endArrow=classic;startArrow=block;startFill=1;exitX=1;exitY=0.5;exitDx=0;exitDy=0;" parent="1" source="jCKPyfohm9eTSwGeLUaR-22" edge="1">
          <mxGeometry relative="1" as="geometry">
            <mxPoint x="1090" y="331" as="sourcePoint" />
            <mxPoint x="1212.1100500000002" y="331.32302000000027" as="targetPoint" />
          </mxGeometry>
        </mxCell>
        <mxCell id="qAASfBlt8r1QQWv_uzUB-15" style="edgeStyle=orthogonalEdgeStyle;rounded=0;orthogonalLoop=1;jettySize=auto;html=1;exitX=0.5;exitY=1;exitDx=0;exitDy=0;entryX=0.459;entryY=1.004;entryDx=0;entryDy=0;entryPerimeter=0;strokeColor=#808080;strokeWidth=2;align=center;verticalAlign=middle;fontFamily=Helvetica;fontSize=11;fontColor=default;labelBackgroundColor=default;endArrow=classic;" parent="1" source="jCKPyfohm9eTSwGeLUaR-22" target="1qFZ0b5etKVb5s6CTwOf-41" edge="1">
          <mxGeometry relative="1" as="geometry">
            <Array as="points">
              <mxPoint x="1045" y="470" />
              <mxPoint x="339" y="470" />
            </Array>
          </mxGeometry>
        </mxCell>
        <mxCell id="jCKPyfohm9eTSwGeLUaR-22" value="&lt;font style=&quot;font-size: 20px;&quot; color=&quot;#333333&quot;&gt;平台階段性&lt;/font&gt;&lt;div&gt;&lt;font style=&quot;font-size: 20px;&quot; color=&quot;#333333&quot;&gt;應用成果&lt;/font&gt;&lt;/div&gt;" style="rounded=1;whiteSpace=wrap;html=1;strokeColor=#808080;fillColor=#eeeeee;fontFamily=標楷體;fontSize=18;fontStyle=0;align=center;verticalAlign=middle;fontColor=default;" parent="1" vertex="1">
          <mxGeometry x="970" y="281" width="150" height="100" as="geometry" />
        </mxCell>
        <mxCell id="qAASfBlt8r1QQWv_uzUB-31" value="" style="group" parent="1" vertex="1" connectable="0">
          <mxGeometry x="1210" y="250.26000000000002" width="180" height="130.55" as="geometry" />
        </mxCell>
        <mxCell id="jCKPyfohm9eTSwGeLUaR-77" value="" style="rounded=1;whiteSpace=wrap;html=1;movable=1;resizable=1;rotatable=1;deletable=1;editable=1;locked=0;connectable=1;strokeWidth=1;dashed=1;dashPattern=8 8;fontFamily=標楷體;fontSize=18;fontStyle=0;arcSize=19;strokeColor=#808080;" parent="qAASfBlt8r1QQWv_uzUB-31" vertex="1">
          <mxGeometry y="20.00999999999999" width="180" height="110.54" as="geometry" />
        </mxCell>
        <mxCell id="iIE0ldJsGx-aEYX-XOFw-96" value="&lt;font style=&quot;font-size: 20px;&quot;&gt;數位紡織&lt;/font&gt;&lt;div&gt;&lt;font style=&quot;font-size: 20px;&quot;&gt;產業生態系&lt;/font&gt;&lt;/div&gt;" style="rounded=1;whiteSpace=wrap;html=1;fontSize=18;fontFamily=標楷體;movable=1;resizable=1;rotatable=1;deletable=1;editable=1;locked=0;connectable=1;fontStyle=0;fillColor=#fff2cc;strokeColor=#808080;" parent="qAASfBlt8r1QQWv_uzUB-31" vertex="1">
          <mxGeometry x="18.61" y="50.55000000000001" width="142.78" height="69.45" as="geometry" />
        </mxCell>
        <mxCell id="jCKPyfohm9eTSwGeLUaR-29" value="&lt;font color=&quot;#333333&quot; style=&quot;font-size: 20px;&quot;&gt;&lt;span style=&quot;&quot;&gt;&lt;b&gt;目的&lt;/b&gt;&lt;/span&gt;&lt;/font&gt;" style="rounded=1;whiteSpace=wrap;html=1;strokeColor=#808080;fillColor=#eeeeee;fontFamily=標楷體;fontSize=18;fontStyle=0;align=center;verticalAlign=middle;fontColor=default;" parent="qAASfBlt8r1QQWv_uzUB-31" vertex="1">
          <mxGeometry x="55" width="70" height="40" as="geometry" />
        </mxCell>
        <mxCell id="rwjSZb17rn8btheEOx0Z-28" style="edgeStyle=orthogonalEdgeStyle;rounded=0;orthogonalLoop=1;jettySize=auto;html=1;strokeColor=#808080;strokeWidth=2;align=center;verticalAlign=middle;fontFamily=Helvetica;fontSize=11;fontColor=default;labelBackgroundColor=default;endArrow=classic;" parent="1" source="rwjSZb17rn8btheEOx0Z-1" target="1qFZ0b5etKVb5s6CTwOf-41" edge="1">
          <mxGeometry relative="1" as="geometry">
            <Array as="points">
              <mxPoint x="220" y="332" />
              <mxPoint x="220" y="332" />
            </Array>
          </mxGeometry>
        </mxCell>
        <mxCell id="IkVJuPzNlVAYnWsuaFp5-1" style="edgeStyle=orthogonalEdgeStyle;rounded=0;orthogonalLoop=1;jettySize=auto;html=1;exitX=0.5;exitY=1;exitDx=0;exitDy=0;entryX=0.5;entryY=1;entryDx=0;entryDy=0;strokeColor=#808080;strokeWidth=2;align=center;verticalAlign=middle;fontFamily=Helvetica;fontSize=11;fontColor=default;labelBackgroundColor=default;endArrow=classic;" parent="1" source="rwjSZb17rn8btheEOx0Z-1" target="jCKPyfohm9eTSwGeLUaR-77" edge="1">
          <mxGeometry relative="1" as="geometry">
            <mxPoint x="140" y="530" as="targetPoint" />
            <Array as="points">
              <mxPoint x="140" y="530" />
              <mxPoint x="1300" y="530" />
            </Array>
          </mxGeometry>
        </mxCell>
        <mxCell id="rwjSZb17rn8btheEOx0Z-1" value="" style="group;movable=1;resizable=1;rotatable=1;deletable=1;editable=1;locked=0;connectable=1;" parent="1" vertex="1" connectable="0">
          <mxGeometry x="79.99838386342918" y="280.97" width="120.00323227314163" height="110" as="geometry" />
        </mxCell>
        <mxCell id="rwjSZb17rn8btheEOx0Z-2" value="&lt;span style=&quot;background-color: transparent; color: light-dark(rgb(0, 0, 0), rgb(255, 255, 255));&quot;&gt;意圖&lt;/span&gt;" style="rounded=0;whiteSpace=wrap;html=1;movable=1;resizable=1;rotatable=1;deletable=1;editable=1;locked=0;connectable=1;fontFamily=標楷體;fontSize=18;fontStyle=0;strokeColor=#808080;" parent="rwjSZb17rn8btheEOx0Z-1" vertex="1">
          <mxGeometry y="50" width="60" height="60" as="geometry" />
        </mxCell>
        <mxCell id="rwjSZb17rn8btheEOx0Z-3" value="問題" style="rounded=0;whiteSpace=wrap;html=1;movable=1;resizable=1;rotatable=1;deletable=1;editable=1;locked=0;connectable=1;fontFamily=標楷體;fontSize=18;fontStyle=0;strokeColor=#808080;align=center;verticalAlign=middle;fontColor=default;fillColor=default;" parent="rwjSZb17rn8btheEOx0Z-1" vertex="1">
          <mxGeometry x="60" y="50" width="60" height="60" as="geometry" />
        </mxCell>
        <mxCell id="rwjSZb17rn8btheEOx0Z-4" value="能動性" style="rounded=0;whiteSpace=wrap;html=1;movable=1;resizable=1;rotatable=1;deletable=1;editable=1;locked=0;connectable=1;fontFamily=標楷體;fontSize=18;fontStyle=0;fillColor=#cce5ff;strokeColor=#808080;align=center;verticalAlign=middle;fontColor=default;" parent="rwjSZb17rn8btheEOx0Z-1" vertex="1">
          <mxGeometry x="0.003232273141634323" width="120" height="50" as="geometry" />
        </mxCell>
        <mxCell id="IkVJuPzNlVAYnWsuaFp5-4" value="" style="group" parent="1" vertex="1" connectable="0">
          <mxGeometry x="270" y="237.99999999999997" width="150" height="175.80999999999997" as="geometry" />
        </mxCell>
        <mxCell id="1qFZ0b5etKVb5s6CTwOf-41" value="" style="rounded=1;whiteSpace=wrap;html=1;movable=1;resizable=1;rotatable=1;deletable=1;editable=1;locked=0;connectable=1;strokeWidth=2;dashed=1;fontFamily=標楷體;fontSize=18;fontStyle=0;strokeColor=#7EA6E0;align=center;verticalAlign=middle;arcSize=19;fontColor=default;fillColor=default;" parent="IkVJuPzNlVAYnWsuaFp5-4" vertex="1">
          <mxGeometry y="19.74000000000001" width="150" height="156.07" as="geometry" />
        </mxCell>
        <mxCell id="1qFZ0b5etKVb5s6CTwOf-51" value="&lt;font color=&quot;#333333&quot;&gt;&lt;span&gt;&lt;b&gt;認知&lt;/b&gt;&lt;/span&gt;&lt;/font&gt;" style="rounded=1;whiteSpace=wrap;html=1;strokeColor=#808080;fillColor=#eeeeee;fontFamily=標楷體;fontSize=18;fontStyle=0" parent="IkVJuPzNlVAYnWsuaFp5-4" vertex="1">
          <mxGeometry x="40" width="70" height="40" as="geometry" />
        </mxCell>
        <mxCell id="IkVJuPzNlVAYnWsuaFp5-2" value="" style="group;rounded=0;strokeColor=#808080;align=center;verticalAlign=middle;fontFamily=標楷體;fontSize=18;fontColor=default;fontStyle=0;resizable=1;fillColor=default;" parent="IkVJuPzNlVAYnWsuaFp5-4" vertex="1" connectable="0">
          <mxGeometry x="25" y="49.02000000000007" width="100" height="99.02999999999997" as="geometry" />
        </mxCell>
        <mxCell id="IkVJuPzNlVAYnWsuaFp5-3" value="" style="group;rounded=0;strokeColor=#808080;align=center;verticalAlign=middle;fontFamily=標楷體;fontSize=18;fontColor=default;fontStyle=0;resizable=1;fillColor=default;" parent="IkVJuPzNlVAYnWsuaFp5-2" vertex="1" connectable="0">
          <mxGeometry width="100" height="99.02999999999997" as="geometry" />
        </mxCell>
        <mxCell id="qAASfBlt8r1QQWv_uzUB-20" value="產業需求" style="rounded=0;whiteSpace=wrap;html=1;movable=1;resizable=1;rotatable=1;deletable=1;editable=1;locked=0;connectable=1;fontFamily=標楷體;fontSize=18;fontStyle=0;strokeColor=#808080;align=center;verticalAlign=middle;fontColor=default;fillColor=default;" parent="IkVJuPzNlVAYnWsuaFp5-3" vertex="1">
          <mxGeometry width="100" height="50" as="geometry" />
        </mxCell>
        <mxCell id="rwjSZb17rn8btheEOx0Z-7" value="企業能力" style="rounded=0;whiteSpace=wrap;html=1;movable=1;resizable=1;rotatable=1;deletable=1;editable=1;locked=0;connectable=1;fontFamily=標楷體;fontSize=18;fontStyle=0;fillColor=default;strokeColor=#808080;align=center;verticalAlign=middle;fontColor=default;" parent="IkVJuPzNlVAYnWsuaFp5-3" vertex="1">
          <mxGeometry y="49.02999999999997" width="100" height="50" as="geometry" />
        </mxCell>
        <mxCell id="IkVJuPzNlVAYnWsuaFp5-16" style="edgeStyle=orthogonalEdgeStyle;rounded=0;orthogonalLoop=1;jettySize=auto;html=1;exitX=1;exitY=0.5;exitDx=0;exitDy=0;strokeColor=#808080;strokeWidth=2;align=center;verticalAlign=middle;fontFamily=Helvetica;fontSize=11;fontColor=default;labelBackgroundColor=default;endArrow=classic;" parent="1" source="iIE0ldJsGx-aEYX-XOFw-15" target="jCKPyfohm9eTSwGeLUaR-22" edge="1">
          <mxGeometry relative="1" as="geometry" />
        </mxCell>
        <mxCell id="iIE0ldJsGx-aEYX-XOFw-15" value="" style="rounded=1;whiteSpace=wrap;html=1;movable=1;resizable=1;rotatable=1;deletable=1;editable=1;locked=0;connectable=1;strokeWidth=2;dashed=1;fontFamily=標楷體;fontSize=18;fontStyle=0;arcSize=19;strokeColor=#7EA6E0;" parent="1" vertex="1">
          <mxGeometry x="510" y="253.99999999999997" width="370" height="154" as="geometry" />
        </mxCell>
        <mxCell id="iIE0ldJsGx-aEYX-XOFw-16" value="&lt;span style=&quot;color: light-dark(rgb(51, 51, 51), rgb(193, 193, 193)); background-color: transparent;&quot;&gt;&lt;b&gt;&lt;font style=&quot;font-size: 20px;&quot;&gt;行動&lt;/font&gt;&lt;/b&gt;&lt;/span&gt;" style="rounded=1;whiteSpace=wrap;html=1;strokeColor=#808080;fillColor=#eeeeee;fontFamily=標楷體;fontSize=18;fontStyle=0" parent="1" vertex="1">
          <mxGeometry x="650" y="229.99999999999997" width="70" height="40" as="geometry" />
        </mxCell>
        <mxCell id="nQ8CWWNottKpQLyOvUbR-3" value="" style="group" vertex="1" connectable="0" parent="1">
          <mxGeometry x="530" y="285.97" width="120" height="100" as="geometry" />
        </mxCell>
        <mxCell id="IkVJuPzNlVAYnWsuaFp5-10" value="探索&lt;span style=&quot;background-color: transparent; color: light-dark(rgb(0, 0, 0), rgb(255, 255, 255));&quot;&gt;可供性&lt;/span&gt;" style="rounded=0;whiteSpace=wrap;html=1;movable=1;resizable=1;rotatable=1;deletable=1;editable=1;locked=0;connectable=1;fontFamily=標楷體;fontSize=18;fontStyle=0;align=center;verticalAlign=middle;strokeColor=#808080;fontColor=default;fillColor=#cce5ff;" parent="nQ8CWWNottKpQLyOvUbR-3" vertex="1">
          <mxGeometry width="120" height="50" as="geometry" />
        </mxCell>
        <mxCell id="nQ8CWWNottKpQLyOvUbR-1" value="物質性" style="rounded=0;whiteSpace=wrap;html=1;movable=1;resizable=1;rotatable=1;deletable=1;editable=1;locked=0;connectable=1;fontFamily=標楷體;fontSize=18;fontStyle=0;align=center;verticalAlign=middle;strokeColor=#808080;fontColor=default;fillColor=default;" vertex="1" parent="nQ8CWWNottKpQLyOvUbR-3">
          <mxGeometry y="50" width="60" height="50" as="geometry" />
        </mxCell>
        <mxCell id="nQ8CWWNottKpQLyOvUbR-2" value="機會" style="rounded=0;whiteSpace=wrap;html=1;movable=1;resizable=1;rotatable=1;deletable=1;editable=1;locked=0;connectable=1;fontFamily=標楷體;fontSize=18;fontStyle=0;align=center;verticalAlign=middle;strokeColor=#808080;fontColor=default;fillColor=default;" vertex="1" parent="nQ8CWWNottKpQLyOvUbR-3">
          <mxGeometry x="60" y="50" width="60" height="50" as="geometry" />
        </mxCell>
        <mxCell id="nQ8CWWNottKpQLyOvUbR-6" value="" style="group" vertex="1" connectable="0" parent="1">
          <mxGeometry x="654.9999673741843" y="285.97" width="210.00006525163133" height="100" as="geometry" />
        </mxCell>
        <mxCell id="1qFZ0b5etKVb5s6CTwOf-48" value="創新&lt;div&gt;探索&lt;/div&gt;" style="rounded=0;whiteSpace=wrap;html=1;movable=1;resizable=1;rotatable=1;deletable=1;editable=1;locked=0;connectable=1;fontFamily=標楷體;fontSize=18;fontStyle=0;strokeColor=#808080;align=center;verticalAlign=middle;fontColor=default;fillColor=default;" parent="nQ8CWWNottKpQLyOvUbR-6" vertex="1">
          <mxGeometry y="50" width="70" height="50" as="geometry" />
        </mxCell>
        <mxCell id="1qFZ0b5etKVb5s6CTwOf-47" value="&lt;span style=&quot;background-color: transparent; color: light-dark(rgb(0, 0, 0), rgb(255, 255, 255));&quot;&gt;開發&lt;/span&gt;&lt;div&gt;&lt;span style=&quot;background-color: transparent; color: light-dark(rgb(0, 0, 0), rgb(255, 255, 255));&quot;&gt;運用&lt;/span&gt;&lt;/div&gt;" style="rounded=0;whiteSpace=wrap;html=1;movable=1;resizable=1;rotatable=1;deletable=1;editable=1;locked=0;connectable=1;fontFamily=標楷體;fontSize=18;fontStyle=0;strokeColor=#808080;align=center;verticalAlign=middle;fontColor=default;fillColor=default;" parent="nQ8CWWNottKpQLyOvUbR-6" vertex="1">
          <mxGeometry x="70.00006525163133" y="50" width="70" height="50" as="geometry" />
        </mxCell>
        <mxCell id="1qFZ0b5etKVb5s6CTwOf-43" value="雙元性靈巧&lt;div&gt;實現可供性&lt;/div&gt;" style="rounded=0;whiteSpace=wrap;html=1;fontSize=18;fontFamily=標楷體;movable=1;resizable=1;rotatable=1;deletable=1;editable=1;locked=0;connectable=1;fillColor=#cce5ff;strokeColor=#808080;fontStyle=0;align=center;verticalAlign=middle;fontColor=default;" parent="nQ8CWWNottKpQLyOvUbR-6" vertex="1">
          <mxGeometry width="210" height="50" as="geometry" />
        </mxCell>
        <mxCell id="nQ8CWWNottKpQLyOvUbR-5" value="平衡&lt;div&gt;機制&lt;/div&gt;" style="rounded=0;whiteSpace=wrap;html=1;movable=1;resizable=1;rotatable=1;deletable=1;editable=1;locked=0;connectable=1;fontFamily=標楷體;fontSize=18;fontStyle=0;strokeColor=#808080;align=center;verticalAlign=middle;fontColor=default;fillColor=default;" vertex="1" parent="nQ8CWWNottKpQLyOvUbR-6">
          <mxGeometry x="140.00006525163133" y="50" width="70" height="50" as="geometry" />
        </mxCell>
      </root>
    </mxGraphModel>
  </diagram>
</mxfile>
